<?xml version="1.0"?>
<svg width="140" height="140" xmlns="http://www.w3.org/2000/svg">

 <g>
  <title>background</title>
  <rect fill="none" id="canvas_background" height="142" width="142" y="-1" x="-1"/>
 </g>
 <g>
  <title>Layer 1</title>
  <g stroke="null" id="svg_1">
   <g stroke="null" id="svg_2">
    <path stroke="#000000" stroke-width="5" fill="none" id="svg_3" d="m80.981201,68.346741c-0.345688,-0.241745 -0.704483,-0.47039 -1.074562,-0.686462c0.100296,-0.206245 0.202248,-0.41832 0.305817,-0.638039c1.475601,-3.128304 2.844521,-6.783615 3.150337,-8.107529c0.712852,-3.086815 -1.218552,-6.17852 -4.305542,-6.891556c-0.42614,-0.09848 -0.862488,-0.148399 -1.296829,-0.148399c-2.688507,0 -4.98909,1.831497 -5.594536,4.453697c-0.316765,1.371086 -0.691566,5.338799 -0.726517,8.86068c-0.475845,-0.030952 -0.955879,-0.04715 -1.439178,-0.04715c-0.483498,0 -0.963524,0.01638 -1.439384,0.04715c-0.034935,-3.521881 -0.40976,-7.489662 -0.726318,-8.86068c-0.60582,-2.6222 -2.906403,-4.453697 -5.594902,-4.453697c-0.434341,0 -0.870689,0.049919 -1.296837,0.148323c-3.086983,0.713043 -5.018211,3.804611 -4.305359,6.891563c0.305828,1.323807 1.674744,4.979111 3.15015,8.107422c0.10376,0.219719 0.205524,0.431969 0.306007,0.638214c-0.370266,0.215897 -0.729057,0.444534 -1.074566,0.686287c-3.10828,2.17588 -4.819977,5.118874 -4.819977,8.287041c0,3.168175 1.711697,6.111176 4.819977,8.286873c2.952278,2.066666 6.852058,3.204765 10.981018,3.204765s8.02874,-1.1381 10.981201,-3.204765c3.108101,-2.175888 4.819794,-5.118698 4.819794,-8.286873c0,-3.168167 -1.711693,-6.11116 -4.819794,-8.286865zm-17.20578,7.947739c-0.793312,0 -1.436447,-0.642952 -1.436447,-1.436455c0,-0.79332 0.643135,-1.436455 1.436447,-1.436455c0.79332,0 1.436462,0.643135 1.436462,1.436455c0,0.793503 -0.643143,1.436455 -1.436462,1.436455zm6.224579,5.60601c0,0 -1.915215,-0.957512 -1.915215,-1.915215c0,-0.528809 0.428703,-0.957695 0.95752,-0.957695l0.957695,0l0.957703,0c0.528809,0 0.957687,0.428703 0.957687,0.957695c-0.000183,0.957703 -1.91539,1.915215 -1.91539,1.915215zm6.224571,-5.60601c-0.79332,0 -1.436447,-0.642952 -1.436447,-1.436455c0,-0.79332 0.643127,-1.436455 1.436447,-1.436455c0.793327,0 1.436462,0.643135 1.436462,1.436455c0,0.793503 -0.64296,1.436455 -1.436462,1.436455z"/>
   </g>
  </g>
  <g id="svg_4"/>
  <g id="svg_5"/>
  <g id="svg_6"/>
  <g id="svg_7"/>
  <g id="svg_8"/>
  <g id="svg_9"/>
  <g id="svg_10"/>
  <g id="svg_11"/>
  <g id="svg_12"/>
  <g id="svg_13"/>
  <g id="svg_14"/>
  <g id="svg_15"/>
  <g id="svg_16"/>
  <g id="svg_17"/>
  <g id="svg_18"/>
 </g>
</svg>
